# xmcd
# 
# Track frame offsets:
#     150
#     11100
#     26767
#     40377
#     49342
#     61475
#     75860
#     95225
#     106122
#     117050
#     131122
#     142897
#     156640
#     167392
#     189640
#     202090
#     238660
#     248387
#     258772
#     268542
#     280255
#     288527
#     300052
#     316867
# 
# Disc length: 4419
# 
# Revision: 4
# Processed by: cddbd v1.5.2PL0 Copyright (c) Steve Scherf et al.
# Submitted via: fre:ac v1.0.31
# 
DISCID=4b114118
DTITLE=Blues - Solid Gone Blues
DYEAR=1998
DGENRE=Blues
TTITLE0=i got it bad and that ain't good
TTITLE1=the letter
TTITLE2=the gallis pole
TTITLE3=when your lover has gone
TTITLE4=early in the morning
TTITLE5=poor howard green corn
TTITLE6=sweet sixteen
TTITLE7=left handed woman
TTITLE8=information blues
TTITLE9=walkin' and talkin'
TTITLE10=payin' the cost to be the boss
TTITLE11=the bourgeois blues
TTITLE12=i wonder who's kissing her now
TTITLE13=the thrill is gone
TTITLE14=cc rider
TTITLE15=fine and mellow
TTITLE16=red light
TTITLE17=the blue tail
TTITLE18=how long
TTITLE19=where can my baby be
TTITLE20=i loves you porgy
TTITLE21=nice work if you can get it
TTITLE22=goin' down slow
TTITLE23=i aint mad at you pretty baby
EXTD=\n YEAR: 1998
EXTT0=
EXTT1=
EXTT2=
EXTT3=
EXTT4=
EXTT5=
EXTT6=
EXTT7=
EXTT8=
EXTT9=
EXTT10=
EXTT11=
EXTT12=
EXTT13=
EXTT14=
EXTT15=
EXTT16=
EXTT17=
EXTT18=
EXTT19=
EXTT20=
EXTT21=
EXTT22=
EXTT23=
PLAYORDER=
